<?xml version="1.0" encoding="UTF-8"?>
<svg width="383px" height="126px" viewBox="0 0 383 126" version="1.1" xmlns="http://www.w3.org/2000/svg" xmlns:xlink="http://www.w3.org/1999/xlink">
    <title>Path 6 Copy</title>
    <g id="Symbols" stroke="none" stroke-width="1" fill="none" fill-rule="evenodd">
        <g id="Element/arrow/2" transform="translate(-5.000000, 1.000000)" fill="#131314" fill-rule="nonzero">
            <path id="Path-6-Copy" d="M255.901144,13.8871781 C263.67899,15.7454507 270.907021,19.417039 276.99497,24.6021072 C291.704962,37.1305148 297.48534,56.2502701 293.69077,73.9039654 L293.575,74.417 L293.923087,74.4250092 C295.329684,74.4548977 296.935013,74.4877181 298.834154,74.5258657 L299.359458,74.5364034 C300.212073,74.5534858 300.783154,74.5649863 301.36195,74.5767676 C323.790909,75.0333065 348.063141,75.5051113 374.178324,75.992176 L376.632021,76.037883 L388.951,76.264 L375.747837,68.5134554 L377.772819,65.0638977 L397.562025,76.6806872 L400.628299,78.4806711 L397.497755,80.1663969 L377.29376,91.0457838 L375.397318,87.5239221 L388.878,80.264 L376.557947,80.0371971 C349.5053,79.5338801 324.41284,79.0467944 301.280547,78.5759392 C300.702273,78.5641685 300.131556,78.5526754 299.279333,78.5356008 C296.610378,78.4821275 294.504589,78.4389771 292.720149,78.4000538 L292.506,78.395 L292.483257,78.4707228 C290.582506,84.5012629 287.51656,90.2696687 283.258263,95.4368761 L282.719764,96.0796212 C254.232715,129.527148 112.1879,117.392083 9.88479058,71.9113912 L6.79701895,70.5229942 L8.45293621,66.881849 C57.9485982,89.3914492 118.729071,104.715801 173.585355,109.541089 C226.730027,114.21582 267.08402,108.26897 279.674553,93.4860344 C283.521237,88.9695233 286.358294,83.9324765 288.207738,78.6497744 L288.328,78.296 L288.089061,78.2898699 C287.627875,78.2776817 287.175526,78.2652859 286.723058,78.2524567 L286.179467,78.2368392 C285.634671,78.2209848 285.084546,78.2043762 284.513614,78.1866235 C260.348337,77.4352201 244.419212,75.4595029 231.644674,70.648075 C215.25171,64.4737957 206.206204,53.7972628 205.592659,37.4866063 C204.695491,13.6360054 222.063573,5.80269118 255.901144,13.8871781 Z M209.589833,37.3362478 C210.137653,51.8996687 218.068313,61.2603343 233.054555,66.904783 C245.298249,71.5162724 260.889838,73.4501244 284.637931,74.1885558 C286.247681,74.2386099 287.692108,74.2795434 289.322169,74.3201979 L289.488,74.324 L289.622541,73.7659234 C293.373526,57.5456133 288.296307,39.8673377 274.985309,28.1528623 L274.401384,27.6473178 C268.793707,22.871295 262.135889,19.4893551 254.971627,17.7776791 C223.34507,10.2214484 208.816365,16.7741528 209.589833,37.3362478 Z" transform="translate(201.462362, 62.939326) rotate(-195.000000) translate(-201.462362, -62.939326) "></path>
        </g>
    </g>
</svg>