<?xml version="1.0" encoding="UTF-8"?>
<svg width="366px" height="30px" viewBox="0 0 366 30" version="1.1" xmlns="http://www.w3.org/2000/svg" xmlns:xlink="http://www.w3.org/1999/xlink">
    <title>Group</title>
    <g id="Symbols" stroke="none" stroke-width="1" fill="none" fill-rule="evenodd">
        <g id="Element/arrow/2" fill="#000000" fill-rule="nonzero">
            <g id="Group" transform="translate(0.000000, -0.000000)">
                <path d="M2.53555126,16.0555556 C3.53555126,15.8555556 4.63555126,15.5555556 5.63555126,15.3555556 C8.73555126,14.7555556 11.9355513,14.1555556 15.1355513,13.6555556 C17.5355513,13.2555556 19.9355513,12.8555556 22.2355513,12.5555556 C23.6355513,12.3555556 25.0355513,12.1555556 26.4355513,11.9555556 C28.2355513,11.6555556 29.1355513,11.5555556 30.7355513,11.3555556 C38.3355513,10.3555556 46.0355513,9.55555556 53.6355513,8.75555556 C63.6355513,7.75555556 73.5355513,7.05555556 83.5355513,6.35555556 C95.9355513,5.55555556 108.335551,5.05555556 120.735551,4.65555556 C135.635551,4.25555556 150.535551,4.05555556 165.335551,4.05555556 C182.735551,4.05555556 200.035551,4.35555556 217.335551,4.95555556 C237.435551,5.55555556 257.435551,6.55555556 277.535551,7.75555556 C300.335551,9.15555556 323.135551,10.9555556 345.835551,12.9555556 C351.835551,13.4555556 357.935551,14.0555556 363.935551,14.6555556 C366.535551,14.8555556 366.435551,10.8555556 363.935551,10.6555556 C340.535551,8.35555556 317.035551,6.45555556 293.635551,4.75555556 C272.835551,3.35555556 252.035551,2.15555556 231.235551,1.35555556 C213.235551,0.655555556 195.135551,0.155555556 177.035551,0.0555555556 C161.535551,-0.0444444444 146.035551,-0.0444444444 130.635551,0.355555556 C117.635551,0.655555556 104.535551,1.15555556 91.5355513,1.85555556 C81.0355513,2.45555556 70.4355513,3.15555556 59.9355513,4.05555556 C51.7355513,4.75555556 43.5355513,5.65555556 35.4355513,6.65555556 C29.3355513,7.35555556 23.3355513,8.25555556 17.3355513,9.15555556 C13.6355513,9.75555556 9.93555126,10.3555556 6.23555126,11.0555556 C4.73555126,11.3555556 3.03555126,11.5555556 1.53555126,12.0555556 C1.43555126,12.0555556 1.43555126,12.0555556 1.33555126,12.0555556 C-1.06444874,12.8555556 0.0355512569,16.7555556 2.53555126,16.0555556 L2.53555126,16.0555556 Z" id="Path"></path>
                <path d="M227.235551,25.1555556 C235.435551,24.2555556 243.735551,23.9555556 252.035551,23.6555556 C273.235551,22.9555556 294.435551,23.4555556 315.535551,24.8555556 C331.235551,25.9555556 346.835551,27.6555556 362.435551,29.9555556 C363.535551,30.1555556 364.535551,29.6555556 364.935551,28.5555556 C365.235551,27.6555556 364.635551,26.2555556 363.535551,26.0555556 C337.335551,22.1555556 310.835551,19.9555556 284.235551,19.4555556 C268.035551,19.1555556 251.735551,19.3555556 235.535551,20.4555556 C232.735551,20.6555556 230.035551,20.8555556 227.235551,21.1555556 C226.135551,21.2555556 225.235551,21.9555556 225.235551,23.1555556 C225.235551,24.1555556 226.235551,25.2555556 227.235551,25.1555556 L227.235551,25.1555556 Z" id="Path"></path>
            </g>
        </g>
    </g>
</svg>