<?xml version="1.0" encoding="UTF-8"?>
<svg width="403px" height="40px" viewBox="0 0 403 40" version="1.1" xmlns="http://www.w3.org/2000/svg" xmlns:xlink="http://www.w3.org/1999/xlink">
    <title>Path 6</title>
    <g id="Symbols" stroke="none" stroke-width="1" fill="none" fill-rule="evenodd">
        <g id="Element/arrow/4" transform="translate(1.000000, -12.000000)" fill="#131314" fill-rule="nonzero">
            <path id="Path-6" d="M377.657664,12.6955235 L398.261177,22.7978868 L401.453624,24.3632152 L398.458096,26.2786231 L379.125469,38.6403389 L376.970635,35.2703699 L389.87,27.021 L377.622062,27.714626 C344.372459,29.3919826 310.994256,29.9870326 277.487521,29.4997886 C209.701188,28.5140619 179.855289,28.933425 133.414618,31.9943786 C99.8191756,34.2086897 56.0208389,40.7530692 2.03563393,51.6293717 L0.39660053,51.9602826 L-0.39660053,48.0397174 C54.5022486,36.9326901 99.0127913,30.2531602 133.151544,28.003039 C164.816749,25.9159519 188.795434,25.0535372 222.244265,25.0257013 L225.220645,25.0254012 C240.229795,25.0346304 257.180398,25.2040661 277.545682,25.5002114 C309.573454,25.9659488 341.483036,25.440277 373.263749,23.9237818 L377.408327,23.720359 L389.644,23.028 L375.896669,16.2870271 L377.657664,12.6955235 Z"></path>
        </g>
    </g>
</svg>