<?xml version="1.0" encoding="UTF-8"?>
<svg width="322px" height="54px" viewBox="0 0 322 54" version="1.1" xmlns="http://www.w3.org/2000/svg" xmlns:xlink="http://www.w3.org/1999/xlink">
    <title>Path 6 Copy 2</title>
    <g id="Symbols" stroke="none" stroke-width="1" fill="none" fill-rule="evenodd">
        <g id="Element/arrow/7" transform="translate(-3.000000, -13.000000)" fill="#131314" fill-rule="nonzero">
            <path id="Path-6-Copy-2" d="M127.363129,14.0821464 C136.334593,14.4387907 145.349779,15.4575105 159.813771,17.6503653 C162.30061,18.0273897 173.373657,19.7862034 185.345831,21.6787085 L186.345428,21.8366999 C187.346778,21.9949474 188.352888,22.1538825 189.359311,22.3127829 L190.723733,22.5281533 C199.588384,23.9270556 208.321127,25.2979096 213.876373,26.1462234 C249.928296,31.6515329 278.852443,32.4171707 300.616493,28.4693666 L301.249,28.352 L313.035,25.027 L298.153352,21.4266506 L299.094121,17.5388552 L321.397383,22.9358023 L324.853201,23.7720418 L322.343987,26.2911329 L306.149947,42.5489178 L303.315969,39.726052 L314.123,28.876 L302.251071,32.2266102 L302.076748,32.2674628 C279.722847,36.4604947 250.132585,35.7290977 213.272553,30.1003859 C208.280519,29.3380774 200.731998,28.1553254 192.828122,26.9095118 L191.470101,26.6953927 L190.472279,26.5379852 C190.139376,26.4854589 189.806233,26.4328839 189.473011,26.3802868 L187.973519,26.1435374 C187.473873,26.0646298 186.974593,25.9857605 186.476225,25.907018 L185.480865,25.7497284 C173.223724,23.812554 161.742064,21.9884183 159.214191,21.605173 C144.883752,19.4325658 135.999328,18.4286222 127.204242,18.0789895 C118.285484,17.7244405 109.234239,18.0591718 96.3307218,19.1859433 C71.3772786,21.3649483 41.6578688,36.8029819 7.25588298,65.5732384 L6.21196535,66.4491453 L3.63594897,63.3890571 C39.0528839,33.5746859 69.8065047,17.4868911 95.9827547,15.2011072 C109.041797,14.0607548 118.25454,13.720051 127.363129,14.0821464 Z"></path>
        </g>
    </g>
</svg>