<?xml version="1.0" encoding="UTF-8"?>
<svg width="210px" height="145px" viewBox="0 0 210 145" version="1.1" xmlns="http://www.w3.org/2000/svg" xmlns:xlink="http://www.w3.org/1999/xlink">
    <title>Path</title>
    <g id="Symbols" stroke="none" stroke-width="1" fill="none" fill-rule="evenodd">
        <g id="Element/circle/2" fill="#000000" fill-rule="nonzero">
            <path d="M116.81876,14.9023765 C110.51876,14.4023765 104.11876,14.8023765 97.9187599,15.5023765 C83.5187599,17.1023765 69.3187599,21.0023765 56.4187599,27.7023765 C39.7187599,36.3023765 25.8187599,49.7023765 16.7187599,66.3023765 C8.81875991,80.6023765 2.61875991,98.7023765 9.91875991,114.402376 C15.9187599,127.202376 29.6187599,134.202376 42.7187599,137.602376 C59.3187599,141.902376 76.9187599,141.702376 93.8187599,139.302376 C102.51876,138.102376 111.21876,136.102376 119.61876,133.402376 C129.31876,130.302376 138.71876,126.002376 147.81876,121.502376 C157.21876,116.902376 166.51876,111.702376 174.81876,105.302376 C181.81876,99.9023765 188.21876,93.7023765 192.71876,86.1023765 C196.91876,79.0023765 199.21876,71.0023765 199.21876,62.7023765 C199.21876,52.6023765 196.11876,42.9023765 191.81876,33.8023765 C188.31876,26.3023765 184.21876,19.0023765 177.91876,13.5023765 C172.81876,9.0023765 166.91876,5.8023765 160.51876,3.7023765 C146.01876,-1.1976235 129.91876,-0.697623504 115.01876,2.1023765 C97.4187599,5.4023765 80.4187599,12.3023765 64.9187599,21.4023765 C48.7187599,30.9023765 33.8187599,43.2023765 21.9187599,57.8023765 C15.9187599,65.2023765 10.6187599,73.1023765 6.31875991,81.7023765 C3.81875991,86.6023765 1.41875991,91.8023765 0.518759912,97.3023765 C-0.481240088,103.302376 -0.0812400876,109.602376 2.11875991,115.302376 C5.91875991,125.002376 13.8187599,132.102376 23.1187599,136.502376 C30.2187599,139.902376 38.0187599,141.902376 45.8187599,143.102376 C56.9187599,144.802376 68.3187599,145.102376 79.5187599,144.602376 C103.01876,143.502376 126.81876,139.802376 148.51876,130.302376 C163.21876,123.802376 176.71876,114.502376 187.11876,102.202376 C195.01876,92.8023765 201.01876,82.0023765 204.81876,70.3023765 C207.41876,62.3023765 209.01876,53.9023765 209.61876,45.4023765 C209.71876,43.4023765 209.81876,41.3023765 209.81876,39.2023765 C209.81876,36.6023765 205.81876,36.6023765 205.81876,39.2023765 C205.81876,41.3023765 205.71876,43.4023765 205.61876,45.5023765 C205.51876,47.1023765 205.31876,48.7023765 205.21876,50.2023765 C205.11876,50.7023765 205.11876,51.1023765 205.01876,51.6023765 C205.01876,51.8023765 205.11876,51.2023765 205.01876,51.8023765 C205.01876,52.1023765 204.91876,52.4023765 204.91876,52.6023765 C204.81876,53.6023765 204.61876,54.5023765 204.41876,55.5023765 C203.61876,60.0023765 202.51876,64.5023765 201.01876,68.9023765 C200.21876,71.4023765 199.21876,73.9023765 198.21876,76.4023765 C198.31876,76.1023765 198.01876,76.9023765 197.91876,77.1023765 C197.81876,77.4023765 197.71876,77.6023765 197.51876,77.9023765 C197.21876,78.6023765 196.91876,79.2023765 196.61876,79.9023765 C196.01876,81.2023765 195.31876,82.6023765 194.61876,83.9023765 C188.31876,95.6023765 179.61876,105.702376 168.91876,113.702376 C154.11876,124.802376 136.51876,131.602376 118.41876,135.602376 C106.01876,138.302376 93.4187599,139.702376 80.7187599,140.402376 C69.7187599,141.002376 58.6187599,140.902376 47.7187599,139.302376 C43.5187599,138.702376 39.3187599,137.802376 35.2187599,136.702376 C31.8187599,135.702376 28.4187599,134.502376 25.5187599,133.202376 C22.9187599,132.002376 20.3187599,130.502376 17.9187599,128.902376 C16.1187599,127.602376 14.2187599,126.002376 12.4187599,124.102376 C11.6187599,123.302376 10.9187599,122.402376 10.2187599,121.502376 C10.5187599,121.902376 10.0187599,121.202376 9.91875991,121.102376 C9.81875991,120.902376 9.61875991,120.702376 9.51875991,120.502376 C9.21875991,120.002376 8.91875991,119.602376 8.61875991,119.102376 C8.11875991,118.202376 7.61875991,117.402376 7.11875991,116.402376 C6.91875991,116.002376 6.71875991,115.602376 6.51875991,115.202376 C6.41875991,115.002376 6.31875991,114.802376 6.21875991,114.502376 C6.51875991,115.102376 6.11875991,114.302376 6.11875991,114.202376 C4.01875991,108.902376 3.51875991,103.002376 4.61875991,97.4023765 C5.61875991,92.3023765 7.91875991,87.5023765 10.2187599,82.9023765 C18.5187599,66.4023765 30.7187599,52.2023765 44.8187599,40.4023765 C58.6187599,28.8023765 74.5187599,19.5023765 91.4187599,13.1023765 C106.51876,7.3023765 122.51876,3.6023765 138.71876,4.1023765 C145.71876,4.3023765 152.41876,5.2023765 159.11876,7.5023765 C164.91876,9.4023765 170.71876,12.5023765 175.21876,16.6023765 C181.21876,22.0023765 185.01876,28.8023765 188.51876,36.2023765 C192.41876,44.6023765 195.31876,53.9023765 195.21876,63.2023765 C195.11876,71.0023765 192.81876,78.5023765 188.61876,85.1023765 C184.11876,92.2023765 177.81876,98.1023765 171.11876,103.002376 C162.81876,109.102376 153.71876,114.102376 144.51876,118.602376 C135.71876,122.902376 126.71876,126.902376 117.41876,129.902376 C101.11876,135.002376 83.8187599,137.402376 66.7187599,136.902376 C52.1187599,136.402376 36.5187599,133.802376 24.4187599,125.302376 C19.6187599,121.902376 15.5187599,117.402376 13.0187599,111.702376 C12.7187599,111.102376 13.1187599,112.002376 12.9187599,111.402376 C12.8187599,111.202376 12.8187599,111.102376 12.7187599,110.902376 C12.6187599,110.602376 12.4187599,110.202376 12.3187599,109.902376 C12.0187599,109.102376 11.8187599,108.402376 11.6187599,107.602376 C11.2187599,106.002376 10.9187599,104.402376 10.7187599,103.002376 C10.4187599,99.5023765 10.5187599,95.9023765 11.1187599,92.6023765 C12.6187599,83.2023765 16.6187599,74.2023765 21.4187599,66.1023765 C26.2187599,57.9023765 32.3187599,50.5023765 39.4187599,44.2023765 C51.3187599,33.7023765 65.7187599,26.8023765 81.0187599,22.8023765 C91.4187599,20.1023765 101.31876,18.8023765 112.01876,18.9023765 C113.61876,18.9023765 115.11876,18.9023765 116.71876,19.1023765 C119.31876,19.2023765 119.31876,15.2023765 116.81876,14.9023765 L116.81876,14.9023765 Z" id="Path"></path>
        </g>
    </g>
</svg>