<?xml version="1.0" encoding="UTF-8"?>
<svg width="371px" height="87px" viewBox="0 0 371 87" version="1.1" xmlns="http://www.w3.org/2000/svg" xmlns:xlink="http://www.w3.org/1999/xlink">
    <title>Path 6 Copy 2</title>
    <g id="Symbols" stroke="none" stroke-width="1" fill="none" fill-rule="evenodd">
        <g id="Element/arrow/5" transform="translate(-4.000000, -15.000000)" fill="#131314" fill-rule="nonzero">
            <path id="Path-6-Copy-2" d="M351.624485,15.2483431 L371.447826,26.8067876 L374.519389,28.5977312 L371.393825,30.2926715 L351.221965,41.2315276 L349.315157,37.7152677 L362.776,30.415 L350.457419,30.2251901 C287.80027,29.5573823 238.385329,32.177569 201.536917,37.6450162 L200.534,37.795 L200.814245,37.9427998 C204.247692,39.7671721 207.097122,41.8290054 209.365027,44.1161923 L209.645487,44.4032634 C216.512987,51.5384033 217.509572,60.5577435 213.219822,69.8531682 C205.290526,87.0350938 180.9124,102 160,102 C149.372319,102 136.759505,97.1080788 128.631773,89.8185094 C119.217051,81.3746688 117.039729,71.018023 124.533174,61.6485627 C132.901386,51.1853336 152.274415,42.6756873 183.30418,36.6107761 L184.977,36.289 L184.75438,36.2328193 C179.835656,34.9974301 174.226974,34.0113748 167.91216,33.3043781 L166.790447,33.1825169 C110.191826,27.2194992 57.38401,42.3095517 8.27723474,78.4993552 L6.79028341,79.6024744 L4.39689592,76.3975256 C54.7155241,38.8206452 109.017247,23.0736113 167.209553,29.2045336 C177.496909,30.2883708 186.145857,32.1102964 193.167926,34.6142573 L193.581,34.763 L194.080061,34.6803585 C231.071081,28.6132281 282.254401,25.5702598 348.497729,26.2051773 L350.509713,26.2255436 L362.837,26.416 L349.609674,18.703851 L351.624485,15.2483431 Z M193.421,38.929 L192.981749,39.003574 C191.001439,39.339803 189.061523,39.6851108 187.161879,40.0394163 C154.970583,46.0434633 135.403893,54.4605447 127.656995,64.1469113 C121.643344,71.6661045 123.330395,79.6907309 131.302489,86.8407119 C138.701016,93.476275 150.364512,98 160,98 C179.380383,98 202.324974,83.9150928 209.587918,68.1770791 C215.272099,55.8600731 210.282326,45.391253 193.440249,38.9360522 L193.421,38.929 Z"></path>
        </g>
    </g>
</svg>