<?xml version="1.0" encoding="UTF-8"?>
<svg width="296px" height="36px" viewBox="0 0 296 36" version="1.1" xmlns="http://www.w3.org/2000/svg" xmlns:xlink="http://www.w3.org/1999/xlink">
    <title>Path 6 Copy</title>
    <g id="Symbols" stroke="none" stroke-width="1" fill="none" fill-rule="evenodd">
        <g id="Element/arrow/6" transform="translate(-3.000000, -26.000000)" fill="#131314" fill-rule="nonzero">
            <path id="Path-6-Copy" d="M271.739747,26.4839768 L294.579637,28.698006 L298.118604,29.0410627 L295.987686,31.8873166 L282.235101,50.2565546 L279.033065,47.8592713 L288.209,35.602 L277.040414,40.533113 L276.903435,40.593588 L276.758978,40.6329926 C263.019353,44.3808457 241.531362,48.1599098 212.259019,51.9831564 C185.560818,55.4701955 169.291019,57.2723189 154.167344,58.3945085 L153.075933,58.4744603 L153.075933,58.4744603 L151.987735,58.5521277 C151.625452,58.5776455 151.263574,58.6027966 150.901972,58.6275951 L149.54319,58.7192169 L148.185474,58.8076805 L146.82729,58.8931521 L145.467101,58.9757978 C140.701145,59.2603065 135.870171,59.4959433 130.678055,59.7147694 C130.593399,59.7183372 130.593399,59.7183372 130.508745,59.7219046 C117.522365,60.2691639 111.051362,60.6398033 100.123813,61.5940277 C74.3052922,63.8485737 42.4874128,56.5670466 4.63350405,39.8018817 L3.4845683,39.2909436 L5.1154317,35.6385081 C42.907342,52.5131237 74.4734109,59.8186715 99.7758455,57.6091916 C103.931235,57.2463313 107.447839,56.967225 110.918375,56.7307478 L112.142322,56.6489883 C117.44617,56.3017873 122.805368,56.0429826 130.340331,55.7254516 C130.424979,55.7218844 130.424979,55.7218844 130.509622,55.7183172 C135.923299,55.4901532 140.940625,55.2437872 145.902078,54.9423565 L147.254072,54.8587552 L148.60483,54.7722572 C149.730373,54.6989225 150.856228,54.6223974 151.986392,54.542249 L153.344911,54.4443042 C168.543857,53.3305482 184.803512,51.5351334 211.740981,48.0168436 C240.509024,44.2594634 261.684065,40.5505771 275.231357,36.9027089 L275.562,36.812 L286.593,31.942 L271.353809,30.4653147 L271.739747,26.4839768 Z"></path>
        </g>
    </g>
</svg>