<?xml version="1.0" encoding="UTF-8"?>
<svg width="459px" height="33px" viewBox="0 0 459 33" version="1.1" xmlns="http://www.w3.org/2000/svg" xmlns:xlink="http://www.w3.org/1999/xlink">
    <title>Group</title>
    <g id="Symbols" stroke="none" stroke-width="1" fill="none" fill-rule="evenodd">
        <g id="Element/line/1" fill="#1D1D1B" fill-rule="nonzero">
            <g id="Group" transform="translate(-0.000000, -0.000000)">
                <path d="M0.08553278,26.2431532 C0.78553278,29.0431532 6.18553278,27.7431532 8.08553278,27.5431532 C14.0855328,26.9431532 19.9855328,26.1431532 25.8855328,25.4431532 C45.8855328,22.8431532 65.9855328,20.1431532 85.9855328,17.5431532 C110.485533,14.4431532 134.885533,11.5431532 159.485533,9.24315324 C180.985533,7.24315324 202.685533,5.44315324 224.285533,5.64315324 C226.685533,5.64315324 229.085533,6.64315324 228.885533,9.54315324 C228.685533,12.0431532 225.585533,13.5431532 223.785533,14.8431532 C218.185533,18.6431532 212.185533,21.8431532 206.585533,25.6431532 C204.485533,27.0431532 202.785533,29.9431532 205.785533,31.6431532 C208.185533,33.0431532 211.685533,32.9431532 214.485533,32.9431532 C219.685533,33.0431532 224.985533,32.7431532 230.185533,32.4431532 C246.085533,31.4431532 261.885533,29.7431532 277.685533,27.9431532 C296.585533,25.7431532 315.485533,23.3431532 334.385533,20.8431532 C351.685533,18.5431532 369.085533,16.1431532 386.385533,13.6431532 C397.185533,12.1431532 407.885533,10.5431532 418.585533,8.94315324 C419.685533,8.74315324 420.685533,8.64315324 421.785533,8.44315324 C424.285533,8.04315324 423.285533,4.24315324 420.685533,4.54315324 C412.385533,5.74315324 403.985533,7.04315324 395.685533,8.24315324 C379.785533,10.5431532 363.885533,12.8431532 347.885533,14.9431532 C329.085533,17.5431532 310.285533,19.9431532 291.385533,22.2431532 C274.485533,24.2431532 257.585533,26.2431532 240.685533,27.6431532 C234.385533,28.1431532 228.185533,28.6431532 221.885533,28.8431532 C217.885533,28.9431532 213.785533,29.1431532 209.785533,28.6431532 C209.985533,28.6431532 209.785533,28.6431532 209.285533,28.5431532 C208.985533,28.4431532 208.685533,28.4431532 208.485533,28.3431532 C208.285533,28.3431532 208.085533,28.2431532 207.885533,28.1431532 C207.985533,28.1431532 208.085533,28.4431532 207.785533,28.0431532 C207.485533,27.6431532 208.085533,28.4431532 207.885533,28.0431532 C208.085533,28.3431532 208.085533,28.2431532 208.185533,28.5431532 C208.185533,28.7431532 208.185533,29.4431532 208.185533,29.1431532 C208.085533,29.5431532 208.185533,29.4431532 207.985533,29.5431532 C208.085533,29.4431532 208.185533,29.2431532 208.385533,29.1431532 C208.885533,28.7431532 208.085533,29.3431532 208.685533,28.9431532 C211.085533,27.4431532 213.485533,25.9431532 215.885533,24.4431532 C219.085533,22.4431532 222.285533,20.4431532 225.485533,18.3431532 C227.485533,16.9431532 229.985533,15.6431532 231.485533,13.6431532 C235.085533,9.04315324 232.185533,1.94315324 226.285533,1.44315324 C221.685533,1.04315324 216.885533,1.44315324 212.285533,1.54315324 C201.585533,1.84315324 190.885533,2.44315324 180.285533,3.24315324 C155.885533,5.04315324 131.585533,7.74315324 107.285533,10.6431532 C85.2855328,13.2431532 63.3855328,16.2431532 41.3855328,19.1431532 C33.5855328,20.1431532 25.6855328,21.2431532 17.8855328,22.2431532 C13.3855328,22.8431532 8.88553278,23.4431532 4.28553278,23.6431532 C3.78553278,23.6431532 3.28553278,23.6431532 2.78553278,23.6431532 C2.28553278,23.6431532 2.68553278,23.4431532 2.88553278,23.6431532 C2.88553278,23.6431532 2.78553278,23.6431532 2.78553278,23.6431532 C3.18553278,23.9431532 3.78553278,24.1431532 4.08553278,24.9431532 C3.18553278,22.7431532 -0.61446722,23.7431532 0.08553278,26.2431532 L0.08553278,26.2431532 Z" id="Path"></path>
                <path d="M436.585533,6.94315324 C442.585533,6.04315324 448.585533,5.14315324 454.485533,4.34315324 C455.285533,4.24315324 456.185533,4.04315324 456.985533,3.94315324 C458.085533,3.74315324 458.685533,2.44315324 458.385533,1.44315324 C458.085533,0.343153244 456.985533,-0.156846756 455.885533,0.0431532438 C449.885533,0.943153244 443.885533,1.84315324 437.985533,2.64315324 C437.185533,2.74315324 436.285533,2.94315324 435.485533,3.04315324 C434.385533,3.24315324 433.785533,4.54315324 434.085533,5.54315324 C434.485533,6.64315324 435.585533,7.04315324 436.585533,6.94315324 L436.585533,6.94315324 Z" id="Path"></path>
            </g>
        </g>
    </g>
</svg>