<?xml version="1.0" encoding="UTF-8"?>
<svg width="334px" height="48px" viewBox="0 0 334 48" version="1.1" xmlns="http://www.w3.org/2000/svg" xmlns:xlink="http://www.w3.org/1999/xlink">
    <title>Path 6 Copy</title>
    <g id="Symbols" stroke="none" stroke-width="1" fill="none" fill-rule="evenodd">
        <g id="Element/arrow/3" transform="translate(1.000000, 1.000000)" fill="#131314" fill-rule="nonzero">
            <path id="Path-6-Copy" d="M178.746914,0.0692808433 C180.391921,1.08624316 180.544555,2.92158877 179.417053,4.38192489 C178.79617,5.18608953 177.761071,5.97730375 176.259609,6.87743677 C175.842884,7.12726512 175.463417,7.35401931 175.095416,7.56921209 L174.875784,7.69703249 C174.839339,7.71813536 174.802957,7.73914565 174.766613,7.76007485 L174.330618,8.00807051 C174.270096,8.04204208 174.209392,8.07591714 174.148389,8.10974834 L173.964362,8.21116307 C173.933502,8.22806115 173.902538,8.24496143 173.871454,8.2618705 L173.683403,8.36348301 C173.651784,8.38045355 173.620016,8.39744604 173.588085,8.41446707 L173.394418,8.5169883 L173.394418,8.5169883 L173.196121,8.62051032 C170.250366,10.1477172 165.582443,12.0997999 149.14166,18.9627719 C147.305459,19.7292677 145.70573,20.4021173 144.195147,21.0444174 C131.515375,26.4358609 124.121587,30.1645856 121.354632,32.867102 C121.033416,33.1808371 120.808109,33.4543336 120.678875,33.6717392 L120.694,33.647 L120.760161,33.6881713 C120.787133,33.7044389 120.816351,33.7213643 120.847873,33.7388658 L120.949404,33.7930167 C122.662903,34.6724622 126.785236,35.2374207 133.312161,35.3323331 C169.815904,35.8631586 227.52297,34.7967082 306.416868,32.1324709 L308.814077,32.0512474 L321.097,31.623 L307.498645,24.5856603 L309.337156,21.0332137 L329.716609,31.5802687 L332.87434,33.2145007 L329.837955,35.0644584 L310.241646,47.00377 L308.160443,43.5878373 L321.237,35.62 L308.95164,36.0488809 C228.767117,38.7747215 170.206348,39.8692592 133.254001,39.3319102 C126.132124,39.2283462 121.558039,38.601476 119.12294,37.3516722 C115.812006,35.6523503 115.874779,32.6279652 118.559722,30.0055505 C121.845738,26.7960613 129.370492,23.0012895 142.62996,17.3633593 C144.149489,16.7172551 145.757042,16.0411151 147.600779,15.271473 C166.131397,7.53612924 169.547421,6.1034063 172.479185,4.45629414 L172.687971,4.3381907 L172.740049,4.30848905 L172.740049,4.30848905 L173.000653,4.15851375 L173.210504,4.03627824 C173.280805,3.99513299 173.351523,3.95355833 173.422855,3.91146629 L173.638891,3.78355013 C173.820785,3.67551329 174.007752,3.56369313 174.202876,3.44671521 C174.350073,3.35846973 174.490214,3.2723826 174.623124,3.18871928 L174.722,3.125 L174.692537,3.12323378 C173.136106,3.02078674 170.725002,3.03927858 167.534414,3.23866747 L167.131537,3.26453759 C133.510425,5.48054051 78.663706,12.5959644 2.62363665,24.6098155 L0.312905061,24.975371 L-0.312905061,21.024629 C77.0395978,8.77174582 132.755639,1.52161018 166.868463,-0.726802079 C173.407344,-1.15778659 177.064836,-0.97059857 178.746914,0.0692808433 Z"></path>
        </g>
    </g>
</svg>