<svg width="275px" height="189px" viewBox="0 0 275 189" version="1.1" xmlns="http://www.w3.org/2000/svg" xmlns:xlink="http://www.w3.org/1999/xlink">
    <title>Group</title>
    <g id="Symbols" stroke="none" stroke-width="1" fill="#000000" fill-rule="evenodd">
        <g id="Element/circle/1" fill="#000000" fill-rule="nonzero">
            <g id="Group" transform="translate(-0.000000, 0.000000)">
                <path d="M112.908904,7.77275009 C109.408904,8.67275009 106.008904,9.87275009 102.708904,11.0727501 C94.108904,14.2727501 85.708904,18.0727501 77.608904,22.4727501 C66.508904,28.5727501 55.908904,35.7727501 46.308904,44.1727501 C35.108904,53.9727501 25.208904,65.3727501 17.508904,78.0727501 C13.208904,85.1727501 9.50890403,92.5727501 6.50890403,100.37275 C3.00890403,109.47275 -0.191095968,119.17275 0.00890403203,129.07275 C0.208904032,140.57275 4.50890403,151.67275 12.108904,160.17275 C18.308904,167.07275 26.308904,171.87275 34.808904,175.17275 C47.508904,180.07275 61.308904,181.77275 74.808904,182.07275 C95.608904,182.47275 116.408904,179.47275 136.808904,175.37275 C156.508904,171.37275 176.008904,166.27275 194.708904,158.97275 C208.308904,153.67275 221.608904,147.37275 233.708904,139.17275 C242.508904,133.27275 250.708904,126.37275 257.508904,118.27275 C262.508904,112.27275 266.808904,105.67275 269.908904,98.4727501 C272.208904,93.0727501 273.808904,87.3727501 274.508904,81.5727501 C274.908904,78.0727501 275.108904,74.6727501 274.908904,71.1727501 C274.608904,66.2727501 273.308904,61.3727501 271.608904,56.7727501 C268.508904,48.1727501 263.908904,40.1727501 258.208904,33.0727501 C250.508904,23.6727501 240.608904,16.0727501 229.708904,10.8727501 C214.408904,3.57275009 197.408904,0.472750087 180.508904,0.0727500869 C160.908904,-0.427249913 141.108904,1.67275009 122.008904,5.67275009 C119.008904,6.27275009 115.908904,6.97275009 112.908904,7.77275009 C110.408904,8.47275009 111.508904,12.3727501 114.008904,11.6727501 C125.008904,8.57275009 136.408904,6.87275009 147.708904,5.57275009 C167.508904,3.37275009 188.108904,2.77275009 207.708904,7.37275009 C220.908904,10.4727501 233.708904,15.9727501 244.208904,24.6727501 C252.208904,31.1727501 258.608904,38.9727501 263.508904,47.9727501 C264.508904,49.7727501 265.408904,51.6727501 266.208904,53.5727501 C266.508904,54.2727501 266.708904,54.8727501 267.208904,55.8727501 C267.508904,56.6727501 267.808904,57.4727501 268.108904,58.3727501 C269.108904,61.1727501 269.908904,63.9727501 270.508904,66.8727501 C270.608904,67.4727501 270.708904,67.9727501 270.808904,68.5727501 C270.808904,68.7727501 270.908904,68.9727501 270.908904,69.2727501 C271.008904,69.7727501 270.808904,68.7727501 270.908904,69.1727501 C270.908904,69.2727501 270.908904,69.3727501 270.908904,69.5727501 C271.008904,70.1727501 271.008904,70.7727501 271.108904,71.3727501 C271.208904,72.7727501 271.208904,74.2727501 271.208904,75.6727501 C271.208904,77.6727501 271.008904,79.6727501 270.708904,81.6727501 C270.808904,80.8727501 270.708904,81.8727501 270.608904,82.0727501 C270.608904,82.3727501 270.508904,82.6727501 270.508904,82.9727501 C270.408904,83.5727501 270.308904,84.1727501 270.208904,84.7727501 C269.908904,86.0727501 269.608904,87.3727501 269.308904,88.6727501 C268.908904,90.0727501 268.508904,91.4727501 268.008904,92.7727501 C267.808904,93.4727501 267.508904,94.1727501 267.208904,94.8727501 C267.108904,95.2727501 266.908904,95.6727501 266.808904,95.9727501 C266.708904,96.1727501 266.708904,96.2727501 266.608904,96.4727501 C266.408904,96.9727501 266.708904,96.2727501 266.508904,96.7727501 C265.108904,99.9727501 263.508904,103.17275 261.608904,106.17275 C259.408904,109.77275 257.208904,112.77275 254.608904,115.77275 C251.508904,119.47275 248.108904,122.87275 244.508904,125.97275 C235.508904,133.97275 225.108904,140.47275 214.308904,145.97275 C199.308904,153.57275 183.408904,159.27275 167.208904,163.87275 C146.208904,169.87275 124.508904,174.37275 102.808904,176.67275 C86.508904,178.37275 69.608904,178.87275 53.408904,176.07275 C42.908904,174.17275 32.708904,170.97275 23.908904,164.97275 C22.008904,163.67275 20.908904,162.87275 19.208904,161.37275 C17.808904,160.07275 16.408904,158.77275 15.108904,157.27275 C14.508904,156.57275 13.908904,155.87275 13.308904,155.17275 C13.208904,155.07275 12.908904,154.67275 13.108904,154.97275 C13.008904,154.77275 12.908904,154.67275 12.708904,154.47275 C12.408904,154.07275 12.108904,153.67275 11.908904,153.27275 C11.008904,151.87275 10.108904,150.47275 9.30890403,149.07275 C5.60890403,142.37275 3.90890403,134.67275 4.10890403,127.07275 C4.40890403,117.67275 7.70890403,108.27275 11.108904,99.6727501 C16.908904,85.3727501 25.208904,72.0727501 35.508904,60.4727501 C44.408904,50.4727501 54.708904,41.6727501 65.908904,34.1727501 C74.808904,28.1727501 84.308904,23.0727501 94.108904,18.6727501 C97.408904,17.2727501 100.808904,15.8727501 104.508904,14.4727501 C106.808904,13.5727501 109.208904,12.7727501 111.608904,12.0727501 C112.408904,11.8727501 113.208904,11.5727501 114.108904,11.3727501 C116.508904,10.9727501 115.408904,7.17275009 112.908904,7.77275009 Z" id="Path"></path>
                <path d="M142.008904,186.27275 C147.408904,185.77275 152.808904,184.77275 158.108904,183.77275 C170.708904,181.37275 183.208904,177.97275 195.408904,173.67275 C211.108904,168.17275 226.408904,160.97275 240.208904,151.67275 C243.808904,149.17275 247.408904,146.57275 250.808904,143.87275 C254.308904,141.07275 257.808904,138.07275 260.808904,134.77275 C266.708904,128.07275 270.808904,119.77275 272.408904,111.07275 C274.108904,102.17275 273.408904,92.8727501 270.408904,84.2727501 C268.808904,79.9727501 267.008904,75.6727501 265.108904,71.4727501 C260.608904,61.8727501 254.908904,52.7727501 248.208904,44.4727501 C240.508904,35.0727501 231.208904,26.9727501 220.608904,20.9727501 C208.008904,13.7727501 194.008904,9.67275009 179.608904,8.27275009 C161.008904,6.47275009 142.508904,9.27275009 124.408904,13.3727501 C108.008904,17.0727501 91.908904,21.9727501 76.608904,28.9727501 C64.908904,34.2727501 53.708904,40.8727501 43.608904,49.0727501 C35.708904,55.4727501 28.608904,62.9727501 22.708904,71.2727501 C17.908904,78.0727501 14.108904,85.4727501 11.208904,93.1727501 C9.00890403,99.1727501 7.40890403,105.47275 6.50890403,111.87275 C5.90890403,116.47275 5.50890403,121.17275 5.60890403,125.77275 C5.70890403,129.47275 6.00890403,133.07275 6.80890403,136.67275 C8.40890403,143.57275 11.408904,150.17275 15.308904,155.97275 C20.908904,164.27275 28.408904,171.07275 37.108904,176.17275 C49.408904,183.27275 63.408904,186.67275 77.408904,187.97275 C85.408904,188.77275 93.708904,189.07275 101.708904,188.27275 C108.208904,187.67275 114.708904,186.67275 121.108904,185.77275 C124.808904,185.17275 128.608904,184.67275 132.308904,184.07275 C133.408904,183.87275 134.008904,182.57275 133.708904,181.57275 C133.408904,180.47275 132.308904,179.97275 131.208904,180.17275 C121.308904,181.77275 111.308904,183.47275 101.208904,184.37275 C93.208904,185.07275 85.108904,184.77275 77.108904,183.97275 C69.608904,183.27275 62.208904,181.87275 55.008904,179.67275 C44.408904,176.37275 34.308904,170.97275 26.408904,163.27275 C23.108904,160.07275 20.608904,157.07275 18.208904,153.37275 C17.108904,151.67275 16.108904,149.97275 15.208904,148.27275 C14.808904,147.47275 14.408904,146.67275 14.008904,145.87275 C13.808904,145.47275 13.708904,145.07275 13.508904,144.67275 C13.508904,144.57275 13.208904,144.07275 13.308904,144.27275 C13.408904,144.47275 13.108904,143.87275 13.108904,143.77275 C12.008904,140.97275 11.108904,138.17275 10.408904,135.27275 C10.108904,134.17275 10.008904,132.97275 9.80890403,131.87275 C9.70890403,131.37275 9.80890403,132.27275 9.80890403,131.97275 C9.80890403,131.87275 9.80890403,131.77275 9.80890403,131.57275 C9.80890403,131.37275 9.70890403,131.07275 9.70890403,130.87275 C9.70890403,130.47275 9.60890403,130.17275 9.60890403,129.77275 C9.40890403,126.47275 9.40890403,123.07275 9.50890403,119.77275 C9.60890403,118.57275 9.70890403,117.37275 9.80890403,116.27275 C9.90890403,115.67275 9.90890403,114.97275 10.008904,114.37275 C10.008904,114.07275 10.108904,113.67275 10.108904,113.37275 C10.108904,113.27275 10.208904,112.77275 10.108904,113.07275 C10.108904,113.37275 10.108904,112.87275 10.108904,112.77275 C10.508904,109.87275 11.108904,106.97275 11.808904,104.07275 C12.608904,100.77275 13.608904,97.4727501 14.808904,94.2727501 C15.108904,93.4727501 15.408904,92.5727501 15.808904,91.7727501 C16.008904,91.3727501 16.108904,90.9727501 16.308904,90.5727501 C16.408904,90.2727501 16.308904,90.4727501 16.308904,90.5727501 C16.308904,90.4727501 16.408904,90.3727501 16.408904,90.2727501 C16.508904,89.9727501 16.608904,89.7727501 16.708904,89.4727501 C17.508904,87.6727501 18.308904,85.9727501 19.208904,84.1727501 C23.308904,76.1727501 28.408904,69.1727501 34.408904,62.6727501 C41.908904,54.5727501 50.708904,47.7727501 60.108904,41.9727501 C72.308904,34.4727501 85.508904,28.7727501 99.108904,24.2727501 C107.408904,21.5727501 115.908904,19.2727501 124.408904,17.3727501 C133.808904,15.2727501 143.408904,13.3727501 153.008904,12.3727501 C168.708904,10.8727501 184.808904,11.7727501 199.908904,16.4727501 C211.908904,20.2727501 223.108904,26.4727501 232.608904,34.6727501 C241.008904,41.9727501 248.108904,50.5727501 253.908904,60.0727501 C258.908904,68.0727501 262.808904,76.4727501 266.008904,85.0727501 C272.008904,101.57275 268.408904,120.57275 256.208904,133.37275 C250.308904,139.57275 243.208904,144.77275 236.008904,149.47275 C229.008904,154.07275 221.608904,158.17275 214.008904,161.67275 C200.708904,167.97275 186.608904,172.77275 172.408904,176.37275 C163.408904,178.67275 154.308904,180.57275 145.108904,181.77275 C144.808904,181.77275 144.708904,181.87275 145.108904,181.77275 C145.008904,181.77275 144.808904,181.77275 144.708904,181.87275 C144.408904,181.87275 144.208904,181.97275 143.908904,181.97275 C143.508904,181.97275 143.108904,182.07275 142.708904,182.07275 C142.408904,182.07275 142.008904,182.17275 141.708904,182.17275 C140.608904,182.27275 139.708904,182.97275 139.708904,184.17275 C140.008904,185.27275 140.908904,186.37275 142.008904,186.27275 L142.008904,186.27275 Z" id="Path"></path>
            </g>
        </g>
    </g>
</svg>