<?xml version="1.0" encoding="UTF-8"?>
<svg width="232px" height="77px" viewBox="0 0 232 77" version="1.1" xmlns="http://www.w3.org/2000/svg" xmlns:xlink="http://www.w3.org/1999/xlink">
    <title>Path</title>
    <g id="Symbols" stroke="none" stroke-width="1" fill="none" fill-rule="evenodd">
        <g id="Element/circle/3" fill="#000000" fill-rule="nonzero">
            <path d="M230.244,32.4154823 C225.744,29.6154823 220.944,27.1154823 216.244,24.8154823 C204.144,18.9154823 191.444,14.0154823 178.444,10.1154823 C160.644,4.71548234 142.244,1.41548234 123.744,0.315482344 C101.744,-0.884517656 79.444,1.31548234 58.144,7.31548234 C46.444,10.6154823 35.044,15.0154823 24.244,20.4154823 C20.744,22.1154823 17.344,24.0154823 14.044,26.1154823 C9.544,29.0154823 4.844,32.5154823 1.944,37.2154823 C-0.156,40.6154823 -0.656,44.6154823 0.944,48.3154823 C2.644,52.0154823 6.044,54.8154823 9.444,56.9154823 C14.344,59.9154823 19.744,62.0154823 25.144,63.7154823 C32.044,65.9154823 39.144,67.6154823 46.244,69.0154823 C54.644,70.6154823 63.244,71.9154823 71.744,72.9154823 C80.944,74.0154823 90.244,74.8154823 99.544,75.3154823 C109.044,75.9154823 118.544,76.2154823 128.044,76.3154823 C137.244,76.4154823 146.444,76.2154823 155.744,75.8154823 C164.144,75.4154823 172.644,74.7154823 180.944,73.7154823 C188.144,72.8154823 195.344,71.7154823 202.344,70.0154823 C207.644,68.7154823 213.044,67.1154823 217.944,64.6154823 C221.244,62.9154823 224.744,60.5154823 226.444,57.1154823 C228.044,53.7154823 227.444,49.9154823 225.444,46.8154823 C222.544,42.2154823 217.744,38.9154823 213.244,36.0154823 C210.044,34.0154823 206.744,32.2154823 203.344,30.5154823 C201.044,29.3154823 199.044,32.8154823 201.344,34.0154823 C204.744,35.7154823 208.144,37.6154823 211.444,39.7154823 C212.744,40.5154823 214.044,41.4154823 215.344,42.3154823 C215.544,42.4154823 216.444,43.1154823 215.844,42.7154823 C216.144,42.9154823 216.444,43.1154823 216.644,43.4154823 C217.144,43.8154823 217.644,44.2154823 218.144,44.7154823 C219.044,45.5154823 219.844,46.3154823 220.644,47.2154823 C220.844,47.4154823 220.944,47.6154823 221.144,47.8154823 C221.244,47.9154823 221.344,48.0154823 221.344,48.1154823 C221.544,48.4154823 221.044,47.7154823 221.344,48.1154823 C221.644,48.5154823 221.844,48.9154823 222.144,49.3154823 C222.344,49.7154823 222.544,50.0154823 222.744,50.4154823 C222.844,50.6154823 222.944,50.8154823 223.044,51.0154823 C222.644,50.3154823 223.044,50.9154823 223.044,51.2154823 C223.144,51.6154823 223.244,51.9154823 223.344,52.3154823 C223.344,52.5154823 223.344,52.6154823 223.444,52.8154823 C223.544,53.2154823 223.444,52.2154823 223.444,52.6154823 C223.444,52.7154823 223.444,52.8154823 223.444,52.9154823 C223.444,53.2154823 223.444,53.6154823 223.444,53.9154823 C223.444,54.3154823 223.344,54.4154823 223.444,53.9154823 C223.444,54.1154823 223.344,54.2154823 223.344,54.4154823 C223.244,54.7154823 223.144,55.0154823 223.044,55.4154823 C222.844,56.0154823 223.244,55.0154823 223.044,55.4154823 C222.944,55.6154823 222.844,55.7154823 222.844,55.9154823 C222.644,56.2154823 222.444,56.5154823 222.244,56.8154823 C222.244,56.9154823 222.144,56.9154823 222.144,57.0154823 C221.944,57.3154823 222.544,56.6154823 222.244,56.8154823 C222.144,57.0154823 221.944,57.1154823 221.844,57.3154823 C221.244,57.9154823 220.644,58.5154823 220.044,59.0154823 C219.644,59.4154823 220.444,58.7154823 219.844,59.1154823 C219.644,59.2154823 219.444,59.4154823 219.244,59.5154823 C218.844,59.8154823 218.444,60.1154823 218.044,60.3154823 C217.144,60.9154823 216.144,61.4154823 215.244,61.8154823 C214.744,62.0154823 214.244,62.3154823 213.644,62.5154823 C213.544,62.6154823 213.344,62.6154823 213.244,62.7154823 C213.944,62.4154823 213.344,62.6154823 213.244,62.7154823 C212.944,62.8154823 212.644,62.9154823 212.444,63.0154823 C211.244,63.5154823 209.944,63.9154823 208.744,64.3154823 C202.744,66.3154823 196.444,67.6154823 190.244,68.6154823 C188.444,68.9154823 186.644,69.2154823 184.844,69.4154823 C184.644,69.4154823 184.344,69.5154823 184.144,69.5154823 C184.044,69.5154823 183.244,69.6154823 183.844,69.5154823 C183.344,69.6154823 182.944,69.6154823 182.444,69.7154823 C181.444,69.8154823 180.544,69.9154823 179.544,70.1154823 C175.544,70.6154823 171.444,71.0154823 167.344,71.3154823 C158.544,72.0154823 149.844,72.4154823 141.044,72.5154823 C131.644,72.7154823 122.344,72.6154823 112.944,72.2154823 C103.644,71.9154823 94.344,71.3154823 85.144,70.5154823 C80.644,70.1154823 76.244,69.6154823 71.744,69.1154823 C70.644,69.0154823 69.544,68.8154823 68.444,68.7154823 C67.944,68.6154823 67.444,68.6154823 67.044,68.5154823 C66.744,68.5154823 66.544,68.4154823 66.244,68.4154823 C66.044,68.4154823 65.944,68.4154823 65.744,68.3154823 C66.144,68.3154823 65.844,68.3154823 65.644,68.3154823 C63.544,68.0154823 61.444,67.7154823 59.344,67.4154823 C51.644,66.2154823 43.844,64.8154823 36.244,62.9154823 C32.944,62.1154823 29.644,61.2154823 26.444,60.1154823 C24.944,59.6154823 23.444,59.1154823 22.044,58.6154823 C21.344,58.3154823 20.644,58.1154823 19.944,57.8154823 C19.644,57.7154823 19.344,57.6154823 19.044,57.4154823 C18.844,57.3154823 18.744,57.3154823 18.544,57.2154823 C18.144,57.1154823 18.944,57.4154823 18.644,57.3154823 C18.544,57.3154823 18.444,57.2154823 18.344,57.2154823 C16.044,56.2154823 13.744,55.1154823 11.544,53.8154823 C10.644,53.2154823 9.744,52.6154823 8.844,52.0154823 C8.544,51.8154823 8.844,52.0154823 8.944,52.1154823 C8.844,52.0154823 8.744,51.9154823 8.644,51.9154823 C8.444,51.7154823 8.244,51.6154823 8.044,51.4154823 C7.644,51.1154823 7.344,50.8154823 7.044,50.4154823 C6.744,50.1154823 6.444,49.8154823 6.144,49.4154823 C6.044,49.2154823 5.844,49.1154823 5.744,48.9154823 C5.444,48.6154823 6.044,49.3154823 5.844,49.0154823 C5.744,48.9154823 5.744,48.8154823 5.644,48.7154823 C5.144,48.0154823 4.844,47.3154823 4.444,46.6154823 C4.644,46.9154823 4.544,47.0154823 4.444,46.5154823 C4.344,46.3154823 4.344,46.1154823 4.244,45.9154823 C4.144,45.5154823 4.144,45.2154823 4.044,44.8154823 C3.944,44.4154823 4.044,45.4154823 4.044,45.0154823 C4.044,44.9154823 4.044,44.8154823 4.044,44.7154823 C4.044,44.5154823 4.044,44.3154823 4.044,44.1154823 C4.044,43.7154823 4.044,43.4154823 4.144,43.0154823 C4.144,42.6154823 4.044,43.6154823 4.144,42.9154823 C4.144,42.7154823 4.244,42.5154823 4.244,42.3154823 C4.344,41.9154823 4.444,41.5154823 4.644,41.1154823 C4.644,41.0154823 4.744,40.9154823 4.744,40.8154823 C4.844,40.5154823 4.444,41.3154823 4.644,41.0154823 C4.744,40.8154823 4.844,40.6154823 4.944,40.3154823 C5.144,39.9154823 5.344,39.5154823 5.644,39.1154823 C5.944,38.7154823 6.244,38.3154823 6.444,37.9154823 C6.744,37.5154823 6.144,38.3154823 6.444,37.9154823 C6.544,37.8154823 6.644,37.7154823 6.644,37.6154823 C6.844,37.4154823 7.044,37.2154823 7.144,37.0154823 C7.944,36.1154823 8.844,35.2154823 9.744,34.4154823 C10.244,34.0154823 10.744,33.5154823 11.244,33.1154823 C11.344,33.0154823 11.544,32.9154823 11.644,32.8154823 C11.944,32.6154823 11.844,32.6154823 11.744,32.8154823 C12.044,32.6154823 12.344,32.3154823 12.644,32.1154823 C13.944,31.2154823 15.244,30.3154823 16.644,29.4154823 C20.244,27.1154823 24.044,25.2154823 27.844,23.3154823 C48.744,13.2154823 71.444,7.01548234 94.644,5.01548234 C114.444,3.31548234 134.544,4.61548234 154.044,8.51548234 C169.644,11.6154823 184.944,16.2154823 199.644,22.2154823 C208.144,25.6154823 216.744,29.7154823 224.844,34.3154823 C225.944,34.9154823 227.044,35.6154823 228.144,36.3154823 C230.444,37.2154823 232.444,33.8154823 230.244,32.4154823 L230.244,32.4154823 Z" id="Path"></path>
        </g>
    </g>
</svg>