<?xml version="1.0" encoding="UTF-8"?>
<svg width="159px" height="187px" viewBox="0 0 159 187" version="1.1" xmlns="http://www.w3.org/2000/svg" xmlns:xlink="http://www.w3.org/1999/xlink">
    <title>Path 3</title>
    <g id="Symbols" stroke="none" stroke-width="1" fill="none" fill-rule="evenodd">
        <g id="Element/arrow/8" transform="translate(-30.000000, -36.000000)" fill="#131314" fill-rule="nonzero">
            <path id="Path-3" d="M110.706074,0.862948936 L113.250994,2.45146389 C72.939497,67.0335155 60.4969216,112.370965 75.5673332,138.301759 C80.022478,145.967471 85.5006297,152.246414 91.7093707,157.094948 L91.821,157.18 L91.9996055,156.529878 C96.2584639,141.265324 104.141837,128.545258 116.054041,119.086458 L116.582194,118.671277 C134.942693,104.382576 151.48469,105.75555 161.26654,119.11035 C169.832596,130.80527 170.3401,148.549156 161.798216,158.361325 C153.015627,168.449997 136.574148,173.774271 119.776565,171.782518 C110.619085,170.696681 101.918306,167.579684 94.13604,162.51163 L93.676,162.208 L93.6089069,162.515695 C93.0607911,165.044195 92.6063481,167.639582 92.2438729,170.298971 L92.147295,171.025844 C89.9836844,187.739396 91.5503754,206.249559 95.7745927,223.774164 L96.0261332,224.803865 L98.955,234.598 L101.733964,222.276616 L104.660478,222.936553 L100.622196,240.844437 L100.035585,243.445782 L98.1170964,241.593617 L84.9100609,228.843158 L86.9937462,226.684859 L96.082,235.459 L93.1330008,225.594204 C88.6177639,207.360289 86.9136021,188.087399 89.1721203,170.6407 C89.6171899,167.202608 90.2108532,163.863433 90.9566385,160.629433 L91.023,160.342 L90.7215063,160.11761 C84.0207885,155.070959 78.1084754,148.475816 73.3141155,140.38934 L72.9735669,139.809199 C57.1507613,112.583804 69.8469085,66.3224059 110.706074,0.862948936 Z M118.424684,121.038814 C106.476786,130.337032 98.672073,143.040819 94.5897092,158.438319 L94.419,159.088 L94.5516321,159.180089 C102.096705,164.371745 110.589889,167.579505 119.556816,168.732578 L120.129812,168.803388 C135.996371,170.684746 151.448875,165.680733 159.535492,156.391534 C167.093986,147.708996 166.630691,131.510784 158.846317,120.883066 C150.111153,108.957267 135.506652,107.745105 118.424684,121.038814 Z" transform="translate(117.168501, 120.606800) rotate(-43.000000) translate(-117.168501, -120.606800) "></path>
        </g>
    </g>
</svg>